<svg width="20" height="20" viewBox="0 0 20 20" fill="none" xmlns="http://www.w3.org/2000/svg">
<path d="M1.97206 2.71533C1.7494 2.78564 1.65174 2.84424 1.45643 3.02393C1.24159 3.22314 1.10877 3.47314 1.05409 3.79736C1.02284 3.97314 1.01502 5.47314 1.02284 8.77393L1.03456 13.5005L1.1244 13.7192C1.2494 14.0317 1.47596 14.2739 1.78846 14.4263L2.05018 14.5552H9.9994H17.9486L18.183 14.4458C18.4799 14.3091 18.7533 14.0161 18.8744 13.7231L18.9642 13.5005L18.976 8.77393C18.9877 3.85205 18.9838 3.70752 18.8236 3.39502C18.6986 3.15283 18.4486 2.90674 18.2064 2.78955L17.9877 2.68018L10.058 2.67236C3.76112 2.66846 2.09706 2.67627 1.97206 2.71533ZM17.9017 3.53174C17.9642 3.5708 18.0463 3.65674 18.0853 3.72705C18.1596 3.84814 18.1635 3.96143 18.1635 8.60986C18.1635 13.8638 18.1791 13.5161 17.9174 13.6763C17.7963 13.7544 17.6596 13.7544 10.0072 13.7544C1.40565 13.7544 2.07362 13.7739 1.91346 13.5083C1.83924 13.3872 1.83534 13.2739 1.83534 8.62549C1.83534 3.53564 1.82752 3.76221 2.02284 3.58643C2.06581 3.54736 2.15174 3.50049 2.21034 3.48096C2.27284 3.46143 5.80409 3.44971 10.058 3.45361C17.4447 3.46143 17.8002 3.46533 17.9017 3.53174Z" fill="currentColor"/>
<path d="M8.45644 5.29343C8.19863 5.37546 8.06191 5.4614 7.89784 5.6489C7.60878 5.97703 7.61659 5.895 7.61659 8.61765C7.61659 11.4028 7.60488 11.2856 7.94863 11.6294C8.26113 11.9458 8.78066 12.0591 9.16347 11.8989C9.42519 11.7895 13.2025 9.60203 13.3588 9.46531C13.8549 9.04343 13.8549 8.19187 13.3549 7.76218C13.1205 7.55906 9.24941 5.3325 9.03847 5.28171C8.82753 5.22703 8.65566 5.23093 8.45644 5.29343ZM10.8158 7.17625C11.8822 7.78953 12.7924 8.32859 12.8432 8.37546C12.9486 8.47312 12.9603 8.7075 12.8627 8.82859C12.8041 8.895 9.44863 10.8598 8.97597 11.102C8.78066 11.1997 8.65956 11.1958 8.52675 11.0825L8.41738 10.9887L8.40566 8.63718L8.39784 6.28953L8.51113 6.17234C8.58925 6.09421 8.66347 6.05906 8.75331 6.05906C8.84706 6.05906 9.3705 6.34031 10.8158 7.17625Z" fill="currentColor"/>
<path d="M4.49549 15.2036C4.12439 15.2778 3.77283 15.6021 3.66736 15.9731C3.60877 16.1802 3.64002 16.5474 3.72986 16.7271C3.82361 16.9106 4.05017 17.1411 4.23767 17.2427L4.39392 17.3286H9.99939H15.6049L15.7611 17.2427C15.9486 17.1411 16.1752 16.9106 16.2689 16.7231C16.308 16.6489 16.347 16.4692 16.3588 16.3286C16.3744 16.1099 16.3627 16.0356 16.2806 15.8599C16.1439 15.563 16.0072 15.4146 15.7494 15.2896L15.5267 15.1802L10.097 15.1724C7.10877 15.1724 4.58924 15.1841 4.49549 15.2036ZM15.4603 16.0474C15.5072 16.0864 15.5541 16.1646 15.5697 16.2231C15.5892 16.3091 15.5697 16.3521 15.476 16.4497L15.3588 16.5669H9.99939H4.64002L4.52283 16.4497C4.42908 16.3521 4.40955 16.3091 4.42908 16.2231C4.4447 16.1646 4.49158 16.0864 4.53845 16.0474C4.61267 15.9849 4.92908 15.981 9.99939 15.981C15.0697 15.981 15.3861 15.9849 15.4603 16.0474Z" fill="currentColor"/>
</svg>
