<svg width="20" height="20" viewBox="0 0 20 20" fill="none" xmlns="http://www.w3.org/2000/svg">
<path d="M18.3333 10C18.3333 14.6024 14.6023 18.3334 9.99999 18.3334C5.39761 18.3334 1.66666 14.6024 1.66666 10C1.66666 5.39764 5.39761 1.66669 9.99999 1.66669C14.6023 1.66669 18.3333 5.39764 18.3333 10Z" stroke="currentColor" stroke-width="1.5"/>
<path d="M9.75642 7.79076C9.90167 7.68083 10.0983 7.68083 10.2436 7.79076L12.1208 9.21165C12.2661 9.32156 12.3268 9.5164 12.2713 9.69431L11.5543 11.9934C11.4988 12.1712 11.3398 12.2916 11.1603 12.2916H8.83976C8.66026 12.2916 8.50117 12.1712 8.44567 11.9934L7.72865 9.69431C7.67318 9.5164 7.73395 9.32156 7.87917 9.21165L9.75642 7.79076Z" stroke="currentColor" stroke-width="1.5"/>
<path d="M9.99999 7.50002V4.16669M12.5 9.16669L15.8333 7.91669M11.6667 12.5L13.3333 15M8.33332 12.0834L6.66666 14.1667M7.49999 9.58335L4.16666 8.75002" stroke="currentColor" stroke-width="1.5" stroke-linecap="round" stroke-linejoin="round"/>
<path d="M7.49999 2.08331L10.0137 3.85199L12.5 2.08331M1.66666 10.6665L4.33045 8.69898L2.96289 5.60035M16.2252 15.7109L13.0132 15.1296L11.8879 18.3333M16.6915 5.1632L15.6696 7.8248L18.3333 9.79223M6.67492 17.8382L6.70951 14.3054L3.33608 14.3416" stroke="currentColor" stroke-width="1.5" stroke-linejoin="round"/>
</svg>
