<svg width="20" height="20" viewBox="0 0 20 20" fill="none" xmlns="http://www.w3.org/2000/svg">
<path d="M8.5 5.9707H15.5588M8.5 9.50011H10.7059M15.5588 9.50011H13.3529M8.5 13.0295H10.7059M15.5588 13.0295H13.3529" stroke="currentColor" stroke-width="1.5" stroke-linecap="round" stroke-linejoin="round"/>
<path d="M5.41177 5.5293H4.52941C2.86563 5.5293 2.03374 5.5293 1.51687 6.04617C1 6.56303 1 7.39493 1 9.05871V14.794C1 16.0123 1.98761 16.9999 3.20588 16.9999C4.42416 16.9999 5.41177 16.0123 5.41177 14.794V5.5293Z" stroke="currentColor" stroke-width="1.5" stroke-linecap="round" stroke-linejoin="round"/>
<path d="M13.3529 2H8.94117C8.12058 2 7.71032 2 7.3737 2.09019C6.46023 2.33496 5.74671 3.04847 5.50195 3.96195C5.41175 4.29856 5.41175 4.70885 5.41175 5.52941V14.7941C5.41175 16.0124 4.42415 17 3.20587 17H13.3529C15.8486 17 17.0964 17 17.8717 16.2247C18.6471 15.4494 18.6471 14.2015 18.6471 11.7059V7.29412C18.6471 4.79844 18.6471 3.55061 17.8717 2.77531C17.0964 2 15.8486 2 13.3529 2Z" stroke="currentColor" stroke-width="1.5" stroke-linecap="round" stroke-linejoin="round"/>
</svg>
