<svg width="20" height="20" viewBox="0 0 20 20" fill="none" xmlns="http://www.w3.org/2000/svg">
<path d="M10 19C14.9706 19 19 14.9706 19 10C19 5.02944 14.9706 1 10 1C5.02944 1 1 5.02944 1 10C1 14.9706 5.02944 19 10 19Z" stroke="currentColor" stroke-width="1.5" stroke-linecap="round" stroke-linejoin="round"/>
<path d="M7.75 7.75C7.75 6.50736 8.75737 5.5 10 5.5C11.2426 5.5 12.25 6.50736 12.25 7.75C12.25 8.52121 11.862 9.20179 11.2705 9.60724C10.6555 10.0287 10 10.6044 10 11.35" stroke="currentColor" stroke-width="1.5" stroke-linecap="round" stroke-linejoin="round"/>
<path d="M10.1125 14.275H10M10.225 14.275C10.225 14.3993 10.1243 14.5 10 14.5C9.87573 14.5 9.77502 14.3993 9.77502 14.275C9.77502 14.1508 9.87573 14.05 10 14.05C10.1243 14.05 10.225 14.1508 10.225 14.275Z" stroke="currentColor" stroke-width="1.5" stroke-linecap="round" stroke-linejoin="round"/>
</svg>
