<svg width="20" height="20" viewBox="0 0 20 20" fill="none" xmlns="http://www.w3.org/2000/svg">
<path d="M2.84998 9.5001C6.67498 9.5001 10.5 5.6751 10.5 1.8501C10.5 5.6751 14.325 9.5001 18.15 9.5001C14.325 9.5001 10.5 13.3251 10.5 17.1501C10.5 13.3251 6.67498 9.5001 2.84998 9.5001Z" stroke="currentColor" stroke-width="1.5" stroke-linejoin="round"/>
<path d="M2 15.875C2.70833 15.875 4.125 14.4583 4.125 13.75C4.125 14.4583 5.54167 15.875 6.25 15.875C5.54167 15.875 4.125 17.2917 4.125 18C4.125 17.2917 2.70833 15.875 2 15.875Z" stroke="currentColor" stroke-width="1.5" stroke-linejoin="round"/>
<path d="M13.9 3.55C14.75 3.55 16.45 1.85 16.45 1C16.45 1.85 18.15 3.55 19 3.55C18.15 3.55 16.45 5.25 16.45 6.1C16.45 5.25 14.75 3.55 13.9 3.55Z" stroke="currentColor" stroke-width="1.5" stroke-linejoin="round"/>
</svg>
