<svg width="20" height="20" viewBox="0 0 20 20" fill="none" xmlns="http://www.w3.org/2000/svg">
<path d="M12.9167 9.99998C12.9167 11.6108 11.6108 12.9166 10 12.9166C8.38918 12.9166 7.08334 11.6108 7.08334 9.99998C7.08334 8.38915 8.38918 7.08331 10 7.08331C11.6108 7.08331 12.9167 8.38915 12.9167 9.99998Z" stroke="currentColor" stroke-width="1.5"/>
<path d="M17.5092 11.7471C17.9441 11.6298 18.1616 11.5712 18.2474 11.459C18.3333 11.3469 18.3333 11.1665 18.3333 10.8058V9.19435C18.3333 8.8336 18.3333 8.65318 18.2474 8.5411C18.1615 8.42893 17.9441 8.37026 17.5092 8.253C15.8838 7.81467 14.8666 6.11544 15.2861 4.50074C15.4014 4.05667 15.4591 3.83465 15.404 3.70442C15.3489 3.5742 15.1909 3.48446 14.8747 3.30498L13.4375 2.48896C13.1273 2.31284 12.9722 2.22478 12.8331 2.24353C12.6938 2.26228 12.5368 2.41896 12.2227 2.73229C11.0067 3.94541 8.99466 3.94536 7.77861 2.73221C7.46451 2.41887 7.30747 2.26221 7.16826 2.24345C7.02906 2.2247 6.87396 2.31276 6.56376 2.48887L5.12652 3.30491C4.81043 3.48437 4.65238 3.57411 4.59731 3.70431C4.54222 3.83451 4.59988 4.05657 4.7152 4.50068C5.13446 6.11543 4.11642 7.81471 2.49084 8.25301C2.05592 8.37026 1.83846 8.42893 1.75256 8.54101C1.66666 8.65318 1.66666 8.8336 1.66666 9.19435V10.8058C1.66666 11.1665 1.66666 11.3469 1.75256 11.459C1.83845 11.5712 2.05591 11.6298 2.49084 11.7471C4.11616 12.1854 5.13339 13.8847 4.71392 15.4993C4.59856 15.9434 4.54088 16.1654 4.59596 16.2957C4.65104 16.4259 4.80909 16.5157 5.1252 16.6951L6.56245 17.5112C6.87266 17.6873 7.02777 17.7753 7.16699 17.7566C7.30621 17.7378 7.46322 17.5811 7.77725 17.2678C8.99391 16.0537 11.0073 16.0536 12.2241 17.2677C12.5381 17.5811 12.6951 17.7378 12.8343 17.7565C12.9735 17.7753 13.1287 17.6872 13.4388 17.5111L14.8761 16.695C15.1922 16.5156 15.3503 16.4258 15.4053 16.2956C15.4604 16.1653 15.4027 15.9433 15.2873 15.4993C14.8677 13.8847 15.8841 12.1855 17.5092 11.7471Z" stroke="currentColor" stroke-width="1.5" stroke-linecap="round"/>
</svg>
