<svg width="20" height="20" viewBox="0 0 20 20" fill="none" xmlns="http://www.w3.org/2000/svg">
<path d="M2.87858 1.05792C2.00072 1.2455 1.24291 2.01081 1.05909 2.89242C0.980304 3.27508 0.980304 6.5239 1.05909 6.90656C1.20164 7.58559 1.68934 8.21585 2.31585 8.53097C2.85607 8.80108 2.84106 8.80108 5.68472 8.80108H8.20575V10.992V13.1829L7.78558 13.0703C7.30914 12.9465 6.82894 12.9203 6.48005 12.999C6.19493 13.0666 5.71099 13.3067 5.48589 13.4905C5.07323 13.8356 4.81062 14.2558 4.67556 14.796C4.61179 15.0549 4.60053 15.1937 4.61179 15.6626C4.62304 16.1541 4.63054 16.2366 4.69807 16.3304C4.81062 16.4842 8.28454 18.7989 8.56215 18.9002L8.78724 18.9865L13.0827 18.9977C16.084 19.0053 17.4383 18.994 17.5771 18.964C18.2486 18.8252 18.8338 18.2362 18.9726 17.5572C18.9989 17.4296 19.0102 16.6118 19.0027 15.0811C18.9877 12.6239 18.9952 12.7289 18.7851 12.17C18.545 11.5209 17.911 10.8682 17.2319 10.5643C16.868 10.3992 16.6392 10.358 14.7709 10.1104L13.0077 9.87402V8.16708C13.0077 6.22378 12.9965 6.12999 12.7376 5.61228C12.3399 4.82071 11.4958 4.29925 10.6067 4.29925C9.71762 4.29925 8.86227 4.82821 8.47211 5.61228C8.26203 6.04371 8.20575 6.33258 8.20575 7.03036V7.60435L5.64721 7.59309L3.08491 7.58184L2.84857 7.45428C2.58971 7.31548 2.43965 7.15791 2.30835 6.8878C2.22206 6.71898 2.22206 6.71148 2.22206 4.89949V3.08L2.31585 2.89242C2.43215 2.65232 2.65724 2.42723 2.89734 2.31093L3.08491 2.21715H10.0065H16.9281L17.0969 2.30343C17.367 2.43473 17.5246 2.5848 17.6634 2.84365L17.7909 3.08V4.89949V6.71898L17.6634 6.95533C17.5208 7.21794 17.4045 7.33048 17.1194 7.48055L16.9281 7.58184L15.7576 7.60059C14.6509 7.61935 14.5834 7.6231 14.4858 7.69813C14.287 7.84444 14.227 7.96449 14.227 8.20084C14.227 8.43719 14.287 8.55724 14.4858 8.70354C14.5834 8.77858 14.6434 8.78233 15.7051 8.79358C17.0068 8.80484 17.1982 8.78233 17.6971 8.53097C18.3161 8.2196 18.8151 7.57809 18.9539 6.90656C19.0327 6.5239 19.0327 3.27508 18.9539 2.89242C18.8151 2.2209 18.3124 1.56813 17.6971 1.26426C17.1194 0.979141 17.6446 0.997898 9.98773 1.00165C4.25914 1.00165 3.08116 1.01291 2.87858 1.05792ZM11.0982 5.60853C11.357 5.73233 11.5184 5.88614 11.6609 6.145L11.7885 6.38135L11.8072 8.4822C11.826 10.3805 11.8335 10.5943 11.8898 10.7031C12.0286 10.9545 12.0361 10.9582 14.3095 11.2621C15.4612 11.4159 16.4629 11.5585 16.5342 11.581C17.1457 11.7798 17.6446 12.3275 17.7722 12.939C17.7984 13.0703 17.8097 13.8319 17.8022 15.28C17.7909 17.3771 17.7909 17.4259 17.7121 17.5271C17.6709 17.5834 17.5883 17.666 17.5321 17.7072C17.4308 17.786 17.412 17.786 13.199 17.786H8.96731L7.38417 16.7356L5.80102 15.6851L5.81603 15.3663C5.83479 14.8973 6.01861 14.5559 6.3675 14.3346C6.74266 14.0982 7.00902 14.102 7.9469 14.3571C8.76848 14.5784 8.9223 14.5897 9.12113 14.4697C9.40624 14.2933 9.38373 14.601 9.40624 10.2642L9.425 6.38135L9.51879 6.19377C9.67635 5.87114 9.98023 5.62354 10.3254 5.5335C10.5092 5.48473 10.9181 5.526 11.0982 5.60853Z" fill="currentColor"/>
<path d="M6.44254 3.16633C6.345 3.21135 6.12366 3.47771 5.60594 4.16799C5.21579 4.68195 4.88565 5.10962 4.87064 5.11712C4.85564 5.12088 4.7506 5.01959 4.63805 4.88828C4.33793 4.53564 4.28916 4.50563 4.00404 4.50563C3.71517 4.50563 3.59512 4.5769 3.47883 4.8095C3.31751 5.13963 3.37754 5.27094 4.0378 6.02124C4.60429 6.66276 4.69432 6.72653 4.98694 6.68902C5.06572 6.67776 5.17452 6.644 5.22329 6.61023C5.3696 6.51645 7.24161 4.00292 7.28288 3.84911C7.41043 3.35766 6.89647 2.93748 6.44254 3.16633Z" fill="currentColor"/>
</svg>
