<svg width="20" height="20" viewBox="0 0 20 20" fill="none" xmlns="http://www.w3.org/2000/svg">
<path d="M9.99999 14.1667C8.60532 14.1667 7.39141 15.2209 6.76471 16.776C6.46537 17.5188 6.8949 18.3334 7.46563 18.3334H12.5343C13.1051 18.3334 13.5346 17.5188 13.2352 16.776C12.6086 15.2209 11.3947 14.1667 9.99999 14.1667Z" stroke="currentColor" stroke-width="1.5" stroke-linecap="round"/>
<path d="M15.4167 4.16666H16.4185C17.4193 4.16666 17.9196 4.16666 18.1807 4.48112C18.4417 4.79559 18.3332 5.2676 18.1161 6.21161L17.7904 7.62755C17.3008 9.75716 15.5091 11.3407 13.3333 11.6667" stroke="currentColor" stroke-width="1.5" stroke-linecap="round" stroke-linejoin="round"/>
<path d="M4.58332 4.16666H3.58148C2.58076 4.16666 2.0804 4.16666 1.81936 4.48112C1.55832 4.79559 1.66686 5.2676 1.88395 6.21161L2.20956 7.62755C2.69927 9.75716 4.49092 11.3407 6.66666 11.6667" stroke="currentColor" stroke-width="1.5" stroke-linecap="round" stroke-linejoin="round"/>
<path d="M10 14.1667C12.5173 14.1667 14.6375 10.2816 15.2748 4.9924C15.451 3.52964 15.5392 2.79826 15.0723 2.23246C14.6056 1.66666 13.8519 1.66666 12.3445 1.66666H7.65549C6.14814 1.66666 5.39445 1.66666 4.92765 2.23246C4.46085 2.79826 4.54897 3.52964 4.72522 4.9924C5.36251 10.2816 7.4827 14.1667 10 14.1667Z" stroke="currentColor" stroke-width="1.5" stroke-linecap="round"/>
</svg>
