<svg width="20" height="20" viewBox="0 0 20 20" fill="none" xmlns="http://www.w3.org/2000/svg">
<path d="M12.9167 9.16667C12.9167 7.55583 11.6108 6.25 10 6.25C8.38918 6.25 7.08334 7.55583 7.08334 9.16667C7.08334 10.7775 8.38918 12.0833 10 12.0833C11.6108 12.0833 12.9167 10.7775 12.9167 9.16667Z" stroke="currentColor" stroke-width="1.5" stroke-linecap="round" stroke-linejoin="round"/>
<path d="M12.9022 9.45825C13.1706 9.53958 13.4552 9.58333 13.75 9.58333C15.3608 9.58333 16.6667 8.2775 16.6667 6.66667C16.6667 5.05583 15.3608 3.75 13.75 3.75C12.2376 3.75 10.994 4.90117 10.8477 6.37511" stroke="currentColor" stroke-width="1.5" stroke-linecap="round" stroke-linejoin="round"/>
<path d="M9.15226 6.37511C9.00601 4.90117 7.76244 3.75 6.25001 3.75C4.63918 3.75 3.33334 5.05583 3.33334 6.66667C3.33334 8.2775 4.63918 9.58333 6.25001 9.58333C6.54485 9.58333 6.82947 9.53958 7.09773 9.45825" stroke="currentColor" stroke-width="1.5" stroke-linecap="round" stroke-linejoin="round"/>
<path d="M18.3333 13.75C18.3333 11.4488 16.2813 9.58331 13.75 9.58331" stroke="currentColor" stroke-width="1.5" stroke-linecap="round" stroke-linejoin="round"/>
<path d="M14.5833 16.25C14.5833 13.9488 12.5313 12.0833 9.99999 12.0833C7.46868 12.0833 5.41666 13.9488 5.41666 16.25" stroke="currentColor" stroke-width="1.5" stroke-linecap="round" stroke-linejoin="round"/>
<path d="M6.24999 9.58331C3.71868 9.58331 1.66666 11.4488 1.66666 13.75" stroke="currentColor" stroke-width="1.5" stroke-linecap="round" stroke-linejoin="round"/>
</svg>
