<svg width="20" height="20" viewBox="0 0 20 20" fill="none" xmlns="http://www.w3.org/2000/svg">
<path d="M11.5998 18H8.17796C4.06201 18 2.00405 18 1.24566 16.6612C0.487266 15.3226 1.53988 13.5479 3.64511 9.99867L5.35607 7.11407C7.37831 3.70469 8.38943 2 9.88889 2C11.3884 2 12.3995 3.70468 14.4217 7.11406L16.1327 9.99867C18.2379 13.5479 19.2905 15.3226 18.5321 16.6612C17.7737 18 15.7157 18 11.5998 18Z" stroke="currentColor" stroke-width="1.5" stroke-linecap="round" stroke-linejoin="round"/>
<path d="M9.88892 14.4445V10.8889" stroke="currentColor" stroke-width="1.5" stroke-linecap="round" stroke-linejoin="round"/>
<path d="M9.88891 7.5556H10M10.1111 7.5556C10.1111 7.43287 10.0117 7.33337 9.88891 7.33337C9.76615 7.33337 9.66669 7.43287 9.66669 7.5556C9.66669 7.67833 9.76615 7.77782 9.88891 7.77782C10.0117 7.77782 10.1111 7.67833 10.1111 7.5556Z" stroke="currentColor" stroke-width="1.5" stroke-linecap="round" stroke-linejoin="round"/>
</svg>
