<svg width="20" height="20" viewBox="0 0 20 20" fill="none" xmlns="http://www.w3.org/2000/svg">
<path d="M1.68091 11.25C3.51388 11.25 4.99981 12.7359 4.99981 14.5689" stroke="currentColor" stroke-width="1.5" stroke-linecap="round" stroke-linejoin="round"/>
<path d="M15 14.5689V14.4923C15 12.7017 16.4517 11.25 18.2423 11.25" stroke="currentColor" stroke-width="1.5" stroke-linecap="round" stroke-linejoin="round"/>
<path d="M4.99981 2.92969C4.99981 4.76267 3.51388 6.24859 1.68091 6.24859" stroke="currentColor" stroke-width="1.5" stroke-linecap="round" stroke-linejoin="round"/>
<path d="M15 2.92969C15 4.74662 16.4742 6.22255 18.2853 6.24825" stroke="currentColor" stroke-width="1.5" stroke-linecap="round" stroke-linejoin="round"/>
<path d="M13.3333 2.91669H6.66666C4.30963 2.91669 3.13112 2.91669 2.39889 3.64892C1.66666 4.38115 1.66666 5.55966 1.66666 7.91669V9.58335C1.66666 11.9404 1.66666 13.1189 2.39889 13.8511C3.13112 14.5834 4.30963 14.5834 6.66666 14.5834H13.3333C15.6903 14.5834 16.8688 14.5834 17.6011 13.8511C18.3333 13.1189 18.3333 11.9404 18.3333 9.58335V7.91669C18.3333 5.55966 18.3333 4.38115 17.6011 3.64892C16.8688 2.91669 15.6903 2.91669 13.3333 2.91669Z" stroke="currentColor" stroke-width="1.5" stroke-linecap="round" stroke-linejoin="round"/>
<path d="M4.16666 17.0834H15.8333" stroke="currentColor" stroke-width="1.5" stroke-linecap="round" stroke-linejoin="round"/>
<path d="M12.5 8.75C12.5 10.1307 11.3807 11.25 10 11.25C8.61925 11.25 7.5 10.1307 7.5 8.75C7.5 7.36929 8.61925 6.25 10 6.25C11.3807 6.25 12.5 7.36929 12.5 8.75Z" stroke="currentColor" stroke-width="1.5" stroke-linecap="round" stroke-linejoin="round"/>
</svg>
