<svg width="20" height="20" viewBox="0 0 20 20" fill="none" xmlns="http://www.w3.org/2000/svg">
<path d="M12.0833 6.24998C12.0833 3.9488 10.2178 2.08331 7.91667 2.08331C5.61548 2.08331 3.75 3.9488 3.75 6.24998C3.75 8.55115 5.61548 10.4166 7.91667 10.4166C10.2178 10.4166 12.0833 8.55115 12.0833 6.24998Z" stroke="currentColor" stroke-width="1.5" stroke-linecap="round" stroke-linejoin="round"/>
<path d="M2.08334 16.25C2.08334 13.0284 4.69502 10.4167 7.91668 10.4167C8.81134 10.4167 9.65893 10.6181 10.4167 10.978" stroke="currentColor" stroke-width="1.5" stroke-linecap="round" stroke-linejoin="round"/>
<path d="M15 16.6667C15.7744 16.6667 16.4502 16.2442 16.8092 15.617M15 16.6667C14.2256 16.6667 13.5498 16.2442 13.1908 15.617M15 16.6667V17.9167M16.8092 15.617L17.9167 16.2498M16.8092 15.617C16.9837 15.3124 17.0833 14.9595 17.0833 14.5833C17.0833 14.2071 16.9836 13.8541 16.8091 13.5494M13.1908 15.617L12.0833 16.2498M13.1908 15.617C13.0163 15.3124 12.9167 14.9595 12.9167 14.5833C12.9167 14.2071 13.0164 13.8541 13.1909 13.5494M15 12.5C15.7743 12.5 16.45 12.9224 16.8091 13.5494M15 12.5C14.2257 12.5 13.55 12.9224 13.1909 13.5494M15 12.5V11.25M16.8091 13.5494L17.9167 12.9165M13.1909 13.5494L12.0833 12.9165" stroke="currentColor" stroke-width="1.5" stroke-linecap="round" stroke-linejoin="round"/>
</svg>
