<svg width="24" height="24" viewBox="0 0 24 24" fill="none" xmlns="http://www.w3.org/2000/svg">
<g clip-path="url(#clip0_895_3729)">
<path d="M13.7344 2.57812C14.2018 3.0971 14.4725 3.71596 14.4521 4.42309C14.3941 4.91334 14.2669 5.36687 13.9687 5.76562C13.9319 5.8152 13.9319 5.8152 13.8942 5.86578C13.5604 6.27811 13.1332 6.49333 12.6562 6.70312C13.1391 8.56849 13.7588 10.9087 15.4922 12.0205C16.1311 12.3913 16.77 12.5232 17.4961 12.3545C18.1386 12.1669 18.6571 11.8172 19.125 11.3437C19.1638 11.3052 19.2026 11.2666 19.2425 11.2269C20.039 10.4255 20.5978 9.47072 21.0469 8.4375C20.8907 8.27927 20.8907 8.27927 20.7277 8.12823C20.3894 7.824 20.1752 7.39549 20.1434 6.94189C20.1253 6.36011 20.2132 5.89341 20.5911 5.42852C20.9479 5.05393 21.3792 4.80479 21.9 4.77172C22.5003 4.76366 22.9949 4.88423 23.4483 5.2987C23.9175 5.79697 24.0275 6.28368 24.0159 6.94445C23.9942 7.4111 23.7695 7.83168 23.4375 8.15625C23.1051 8.41112 22.7419 8.63754 22.3125 8.625C22.3076 8.66221 22.3028 8.69943 22.2978 8.73777C22.2329 9.21428 22.1455 9.68472 22.0539 10.1567C22.0374 10.2428 22.0208 10.3288 22.0042 10.4149C21.9597 10.6467 21.9149 10.8784 21.87 11.1101C21.823 11.3533 21.7762 11.5965 21.7293 11.8397C21.6407 12.2996 21.5519 12.7594 21.4631 13.2193C21.362 13.7423 21.2612 14.2652 21.1604 14.7882C21.0118 15.5587 20.8632 16.3292 20.7144 17.0997C20.6983 17.183 20.6822 17.2662 20.6661 17.3495C20.6442 17.4631 20.6223 17.5767 20.6003 17.6903C20.594 17.7233 20.5876 17.7563 20.581 17.7903C20.5494 17.954 20.5171 18.1177 20.4844 18.2812C14.8847 18.2812 9.285 18.2812 3.51562 18.2812C1.6875 8.81801 1.6875 8.81801 1.6875 8.625C1.63722 8.62306 1.58695 8.62113 1.53515 8.61914C1.14754 8.57086 0.735816 8.34199 0.468747 8.0625C0.159035 7.63748 -0.0273118 7.26432 -0.0205109 6.73535C-0.020122 6.69623 -0.019733 6.65711 -0.0193322 6.61681C-0.00530906 6.10289 0.158621 5.71624 0.515622 5.34375C0.986761 4.90878 1.44978 4.76476 2.08282 4.77136C2.59202 4.80147 3.0389 5.03155 3.38965 5.39941C3.81736 5.90937 3.89596 6.48285 3.84375 7.125C3.72958 7.68475 3.3777 8.03586 2.95312 8.39062C3.3132 9.32971 3.83614 10.3175 4.56079 11.0273C4.64062 11.1094 4.64062 11.1094 4.64062 11.2031C4.6683 11.2151 4.69597 11.2272 4.72448 11.2396C4.83759 11.3021 4.90051 11.3678 4.98632 11.4639C5.53594 12.0257 6.32853 12.412 7.11621 12.4365C7.84819 12.4207 8.46205 12.1061 9 11.625C9.03565 11.5932 9.0713 11.5614 9.10803 11.5287C10.3939 10.314 10.9381 8.35937 11.3437 6.70312C11.295 6.68094 11.2463 6.65877 11.1962 6.63592C10.5308 6.32427 10.0225 5.94651 9.73681 5.24267C9.50059 4.561 9.49501 3.88909 9.80566 3.22265C10.147 2.60394 10.6507 2.1935 11.3145 1.95996C12.2076 1.75977 13.0476 1.96437 13.7344 2.57812Z" fill="currentColor"/>
<path d="M4.7156 19.1593C4.78087 19.1592 4.84614 19.1589 4.91141 19.1587C5.09032 19.1581 5.26922 19.1581 5.44813 19.1582C5.64126 19.1583 5.83439 19.1577 6.02752 19.1573C6.40574 19.1565 6.78395 19.1563 7.16217 19.1562C7.46968 19.1562 7.77718 19.156 8.08469 19.1557C8.95689 19.1549 9.82909 19.1544 10.7013 19.1545C10.7718 19.1545 10.7718 19.1545 10.8437 19.1545C10.9143 19.1545 10.9143 19.1545 10.9863 19.1545C11.7489 19.1545 12.5115 19.1537 13.2741 19.1523C14.0575 19.151 14.8408 19.1503 15.6242 19.1504C16.0639 19.1504 16.5035 19.1502 16.9432 19.1492C17.3175 19.1483 17.6919 19.1481 18.0663 19.1488C18.2571 19.1491 18.448 19.1491 18.6389 19.1483C18.8139 19.1475 18.9889 19.1477 19.1639 19.1485C19.2567 19.1487 19.3494 19.148 19.4422 19.1472C19.9412 19.1511 20.3633 19.2444 20.7319 19.5972C21.0418 19.9444 21.1649 20.2938 21.1551 20.7581C21.1192 21.1254 20.9832 21.4456 20.7274 21.713C20.2203 22.1285 19.6855 22.132 19.0622 22.1313C18.9988 22.1314 18.9354 22.1315 18.8721 22.1316C18.6986 22.1319 18.5251 22.1319 18.3517 22.1318C18.1643 22.1318 17.977 22.1321 17.7896 22.1323C17.4229 22.1327 17.0561 22.1328 16.6893 22.1328C16.3911 22.1328 16.0929 22.1329 15.7947 22.1331C14.9487 22.1335 14.1027 22.1337 13.2567 22.1337C13.2112 22.1337 13.1656 22.1337 13.1186 22.1337C13.0502 22.1337 13.0502 22.1337 12.9803 22.1337C12.2408 22.1337 11.5013 22.1341 10.7617 22.1348C10.0019 22.1354 9.242 22.1358 8.48214 22.1357C8.05574 22.1357 7.62934 22.1358 7.20294 22.1363C6.83991 22.1368 6.47688 22.1369 6.11385 22.1366C5.92875 22.1364 5.74366 22.1364 5.55857 22.1368C5.38886 22.1372 5.21916 22.1371 5.04946 22.1367C4.95955 22.1366 4.86963 22.1369 4.77972 22.1373C4.18727 22.135 3.70361 22.073 3.24298 21.6768C2.96687 21.3889 2.85108 21.0148 2.83594 20.6221C2.85264 20.2055 2.99958 19.884 3.28491 19.5822C3.7183 19.1867 4.14966 19.158 4.7156 19.1593Z" fill="currentColor"/>
</g>
<defs>
<clipPath id="clip0_895_3729">
<rect width="24" height="24" fill="currentColor"/>
</clipPath>
</defs>
</svg>
