<svg width="24" height="24" viewBox="0 0 24 24" fill="none" xmlns="http://www.w3.org/2000/svg">
<g clip-path="url(#clip0_895_3731)">
<path d="M12.3279 2.44757C12.5715 2.56725 12.8079 2.6982 13.0441 2.83173C14.1132 3.4361 15.2106 3.87991 16.4531 3.9375C16.5249 3.94122 16.5249 3.94122 16.5981 3.94501C17.3411 3.96425 18.0863 3.84715 18.8171 3.72378C18.8753 3.71402 18.8753 3.71402 18.9347 3.70406C19.0294 3.68817 19.1241 3.67221 19.2187 3.65625C19.222 4.60859 19.2245 5.56092 19.226 6.51326C19.2268 6.95557 19.2277 7.39788 19.2294 7.84019C19.2308 8.22625 19.2317 8.61232 19.232 8.99839C19.2322 9.20231 19.2326 9.40622 19.2336 9.61014C19.2379 10.4952 19.2256 11.3586 19.0781 12.2344C19.0682 12.294 19.0682 12.294 19.058 12.3548C18.6269 14.9055 17.1958 17.1539 15.4219 18.9844C15.3986 19.0084 15.3753 19.0325 15.3513 19.0573C15.1041 19.3116 14.8504 19.5541 14.5781 19.7812C14.5529 19.8024 14.5277 19.8236 14.5017 19.8455C13.8805 20.3655 13.2305 20.8308 12.5478 21.2666C12.51 21.2909 12.4722 21.3151 12.4333 21.3401C12.3978 21.3625 12.3623 21.3848 12.3257 21.4078C12.2945 21.4275 12.2632 21.4473 12.231 21.4676C12.1351 21.5185 12.0611 21.5495 11.9531 21.5625C11.867 21.5294 11.867 21.5294 11.7783 21.4741C11.7282 21.4433 11.7282 21.4433 11.6771 21.4119C11.6416 21.3891 11.606 21.3663 11.5693 21.3428C11.5321 21.3194 11.4949 21.2961 11.4566 21.272C10.678 20.778 9.93092 20.2335 9.25488 19.6056C9.15804 19.5161 9.05955 19.43 8.95898 19.3447C8.55348 18.9919 8.17101 18.6012 7.82812 18.1875C7.80763 18.1635 7.78714 18.1394 7.76603 18.1147C7.13417 17.373 6.59365 16.5656 6.14062 15.7031C6.12458 15.6728 6.10854 15.6424 6.09201 15.6112C5.56835 14.6135 5.17718 13.554 4.95117 12.4482C4.94445 12.4157 4.93773 12.3832 4.93081 12.3497C4.90903 12.2334 4.89196 12.117 4.875 12C4.86714 11.9476 4.85929 11.8952 4.8512 11.8412C4.74797 11.0697 4.76913 10.2907 4.77174 9.51407C4.77233 9.30756 4.77238 9.10105 4.77249 8.89454C4.77278 8.50494 4.77355 8.11534 4.77449 7.72574C4.77555 7.28158 4.77606 6.83742 4.77653 6.39325C4.7775 5.48092 4.77915 4.56858 4.78125 3.65625C4.82374 3.6631 4.86623 3.66996 4.91002 3.67702C5.07039 3.70279 5.23079 3.72836 5.39122 3.75381C5.46014 3.76478 5.52905 3.77583 5.59794 3.78695C7.78562 4.13988 9.595 3.71158 11.4693 2.54609C11.7625 2.37984 12.0099 2.31861 12.3279 2.44757Z" fill="currentColor"/>
<path d="M14.4433 0.875977C16.0458 1.824 17.9772 1.61738 19.7163 1.18066C19.9659 1.11527 20.2131 1.04404 20.4585 0.964233C20.5088 0.947958 20.5088 0.947958 20.5601 0.931355C20.6505 0.90162 20.7406 0.870805 20.8306 0.839905C21.0326 0.788581 21.1672 0.772667 21.375 0.796875C21.5008 0.889014 21.5928 0.962829 21.6307 1.11934C21.6394 1.2279 21.6402 1.33415 21.6385 1.44305C21.6388 1.48454 21.6391 1.52602 21.6394 1.56876C21.6401 1.70784 21.6392 1.84685 21.6382 1.98592C21.6384 2.08565 21.6386 2.18538 21.639 2.28511C21.6397 2.55636 21.6389 2.82758 21.6378 3.09882C21.6368 3.38354 21.6371 3.66827 21.6372 3.953C21.6372 4.43218 21.6363 4.91135 21.6348 5.39053C21.6331 5.94182 21.6326 6.4931 21.633 7.0444C21.6333 7.57662 21.6327 8.10884 21.6318 8.64106C21.6315 8.86644 21.6313 9.09181 21.6314 9.31718C21.6314 9.5842 21.6308 9.85121 21.6296 10.1182C21.6292 10.2152 21.6291 10.3123 21.6293 10.4093C21.6339 13.8335 20.2551 17.0112 18.0172 19.5673C17.9618 19.6307 17.9067 19.6944 17.8517 19.7582C17.6211 20.0208 17.3764 20.269 17.1299 20.5166C17.0967 20.55 17.0634 20.5835 17.0292 20.6179C16.8136 20.8329 16.591 21.0368 16.3594 21.2344C16.3159 21.2717 16.2725 21.3091 16.2277 21.3475C15.2449 22.1741 14.1924 22.893 13.0781 23.5312C13.038 23.5543 12.998 23.5773 12.9567 23.601C12.8376 23.6687 12.7178 23.735 12.5976 23.8008C12.5619 23.821 12.5262 23.8412 12.4894 23.862C12.2666 23.981 12.0673 24.0551 11.8125 24C11.6401 23.9353 11.4815 23.8512 11.3203 23.7627C11.2737 23.7377 11.2271 23.7127 11.179 23.6869C10.1193 23.1095 9.11933 22.4373 8.18666 21.6724C8.11742 21.6159 8.04743 21.5604 7.97735 21.505C7.20144 20.8875 6.43089 20.1701 5.81688 19.39C5.71233 19.2575 5.60299 19.13 5.49315 19.002C3.46683 16.5679 2.37697 13.4584 2.37625 10.305C2.37589 10.2037 2.3755 10.1023 2.37507 10.001C2.37405 9.72851 2.37363 9.45602 2.37339 9.18352C2.37322 9.01308 2.37293 8.84264 2.37259 8.6722C2.37145 8.07713 2.37083 7.48207 2.37067 6.887C2.3705 6.33272 2.36909 5.77845 2.36713 5.22417C2.36551 4.74724 2.36478 4.27032 2.36475 3.79339C2.36471 3.50895 2.3643 3.22451 2.36297 2.94007C2.36175 2.67324 2.36164 2.40643 2.36239 2.13959C2.36248 2.04165 2.36216 1.94371 2.36141 1.84577C2.36046 1.71224 2.36095 1.57879 2.3618 1.44526C2.36118 1.40639 2.36056 1.36753 2.35992 1.32748C2.36283 1.1289 2.3742 1.05263 2.49925 0.889778C2.63576 0.78892 2.71968 0.766695 2.88868 0.777947C3.12662 0.818409 3.35372 0.895884 3.583 0.969727C4.19469 1.15871 4.80647 1.29943 5.43749 1.40625C5.47228 1.41216 5.50707 1.41806 5.54291 1.42415C7.15459 1.68615 8.44985 1.49097 9.86278 0.702759C11.5751 -0.25067 12.7983 -0.122315 14.4433 0.875977ZM10.5322 2.22363C9.20638 2.9752 7.84074 3.314 6.3164 3.13184C6.26472 3.12587 6.21304 3.1199 6.1598 3.11375C5.72799 3.06068 5.30381 2.98037 4.87952 2.88461C4.54801 2.8048 4.54801 2.8048 4.21874 2.85938C4.09016 2.98758 4.03566 3.06505 4.00778 3.24609C4.00777 3.30422 4.00776 3.36234 4.00775 3.42223C4.00749 3.45475 4.00723 3.48727 4.00696 3.52078C4.00632 3.62951 4.00702 3.73819 4.00772 3.84692C4.00754 3.92502 4.00729 4.00313 4.00695 4.08123C4.0063 4.29349 4.00683 4.50573 4.0076 4.71799C4.00825 4.94111 4.00794 5.16424 4.00778 5.38737C4.00765 5.76302 4.00828 6.13868 4.00937 6.51433C4.01061 6.94586 4.0107 7.37737 4.01015 7.8089C4.00964 8.22609 4.00994 8.64328 4.0106 9.06048C4.01086 9.23682 4.01087 9.41317 4.01064 9.58952C4.00917 11.1495 4.13108 12.6229 4.64061 14.1094C4.65132 14.1417 4.66204 14.1741 4.67307 14.2074C5.48883 16.6569 7.1903 18.9942 9.23436 20.5781C9.28156 20.6178 9.32875 20.6575 9.37737 20.6984C9.75777 21.0173 10.1609 21.2988 10.5732 21.5742C10.6126 21.6006 10.6126 21.6006 10.6528 21.6276C10.9482 21.8252 11.2476 22.016 11.553 22.1975C11.605 22.2286 11.657 22.2597 11.7105 22.2918C11.8718 22.365 11.9658 22.3801 12.1406 22.3594C12.2414 22.3244 12.2414 22.3244 12.3316 22.268C12.3663 22.2479 12.401 22.2278 12.4368 22.207C12.4917 22.1737 12.4917 22.1737 12.5478 22.1396C12.6059 22.1052 12.6059 22.1052 12.6651 22.07C13.5473 21.5389 14.363 20.9233 15.1406 20.25C15.1773 20.2186 15.214 20.1873 15.2518 20.155C15.854 19.6279 16.4331 19.0561 16.9219 18.4219C16.965 18.3692 17.0084 18.3166 17.0519 18.2642C18.8806 16.0481 19.9844 13.248 19.9824 10.3666C19.9826 10.287 19.983 10.2074 19.9833 10.1277C19.9841 9.91441 19.9844 9.70109 19.9844 9.48777C19.9845 9.35424 19.9847 9.2207 19.9849 9.08716C19.9858 8.62066 19.9862 8.15415 19.9861 7.68765C19.9861 7.25351 19.9871 6.81938 19.9885 6.38524C19.9898 6.01122 19.9903 5.6372 19.9902 5.26318C19.9902 5.0403 19.9904 4.81744 19.9914 4.59456C19.9923 4.38559 19.9923 4.17664 19.9917 3.96767C19.9916 3.89105 19.9918 3.81442 19.9924 3.7378C19.9931 3.63322 19.9926 3.5287 19.9919 3.42412C19.992 3.36563 19.992 3.30714 19.9921 3.24688C19.9644 3.06499 19.9112 2.98745 19.7812 2.85938C19.5702 2.79352 19.4011 2.82048 19.1876 2.86615C19.1277 2.87853 19.0678 2.89091 19.0061 2.90366C18.9748 2.91032 18.9435 2.91699 18.9113 2.92385C17.5817 3.20521 16.268 3.32404 14.9531 2.90625C14.8967 2.88867 14.8404 2.87108 14.7823 2.85297C14.2235 2.66648 13.7202 2.37109 13.2069 2.08624C12.6465 1.76032 12.6465 1.76032 12.0264 1.62305C11.9819 1.62075 11.9375 1.61845 11.8918 1.61609C11.3984 1.68605 10.957 1.9791 10.5322 2.22363Z" fill="currentColor"/>
</g>
<defs>
<clipPath id="clip0_895_3731">
<rect width="24" height="24" fill="currentColor"/>
</clipPath>
</defs>
</svg>
