<svg width="24" height="24" viewBox="0 0 24 24" fill="none" xmlns="http://www.w3.org/2000/svg">
<g clip-path="url(#clip0_895_3730)">
<path d="M12.0527 0.55957C12.214 0.619182 12.2402 0.650985 12.3281 0.796875C12.3811 0.934325 12.4225 1.07472 12.464 1.216C12.4767 1.25815 12.4894 1.30029 12.5025 1.34371C12.53 1.43492 12.5573 1.52617 12.5844 1.61748C12.6274 1.76217 12.6709 1.90669 12.7145 2.05119C12.8477 2.49292 12.9793 2.9351 13.1095 3.37769C13.1623 3.55691 13.2156 3.736 13.2688 3.91508C13.3055 4.03898 13.3414 4.16305 13.3774 4.28715C13.7121 5.42448 14.2417 6.4595 14.9531 7.40625C14.9861 7.45078 15.0191 7.49532 15.0531 7.5412C15.5509 8.18051 16.1594 8.77686 16.8281 9.23438C16.8582 9.25518 16.8884 9.27599 16.9194 9.29743C17.9319 9.9908 19.0331 10.4317 20.2059 10.7793C20.3447 10.8205 20.4833 10.8622 20.6219 10.9041C21.0342 11.0284 21.4471 11.1506 21.8612 11.2691C22.0219 11.3151 22.1824 11.3616 22.343 11.408C22.4536 11.4397 22.5644 11.4705 22.6753 11.5013C22.7424 11.5206 22.8095 11.5399 22.8766 11.5593C22.9344 11.5755 22.9921 11.5917 23.0515 11.6083C23.2246 11.6809 23.3177 11.763 23.4375 11.9062C23.4639 12.0264 23.4639 12.0264 23.4375 12.1406C23.2969 12.3131 23.1681 12.3686 22.9568 12.4303C22.9133 12.4432 22.9133 12.4432 22.8689 12.4565C22.7731 12.4849 22.677 12.5124 22.5809 12.54C22.5132 12.5599 22.4456 12.5799 22.3779 12.5999C22.1992 12.6526 22.0203 12.7046 21.8414 12.7565C21.6632 12.8082 21.4852 12.8604 21.3073 12.9127C21.2726 12.9229 21.2379 12.933 21.2022 12.9435C21.1328 12.9639 21.0633 12.9843 20.9939 13.0047C20.925 13.025 20.8561 13.0452 20.7872 13.0654C20.3629 13.1897 19.9393 13.316 19.5178 13.4498C19.4585 13.4686 19.4585 13.4686 19.398 13.4877C17.5648 14.077 15.9464 15.2208 14.8125 16.7812C14.7929 16.8082 14.7733 16.8351 14.7531 16.8628C14.5014 17.2128 14.2837 17.5792 14.0801 17.959C14.0604 17.9949 14.0408 18.0309 14.0206 18.0679C13.5618 18.9474 13.3043 19.9171 13.0282 20.865C12.9795 21.0316 12.9304 21.1982 12.8814 21.3647C12.8526 21.4625 12.8239 21.5602 12.7952 21.6579C12.7765 21.7214 12.7578 21.785 12.7391 21.8485C12.6541 22.1374 12.5692 22.4264 12.4897 22.7169C12.4793 22.7543 12.4689 22.7917 12.4581 22.8303C12.4324 22.9233 12.4073 23.0165 12.3824 23.1097C12.3237 23.2616 12.268 23.3374 12.1406 23.4375C12 23.4639 12 23.4639 11.8594 23.4375C11.7128 23.2824 11.6395 23.1433 11.5798 22.9399C11.5643 22.888 11.5488 22.8361 11.5328 22.7826C11.5166 22.7266 11.5005 22.6705 11.4838 22.6128C11.4571 22.5227 11.4304 22.4326 11.4037 22.3425C11.3663 22.216 11.3294 22.0892 11.2925 21.9625C11.2473 21.8077 11.2016 21.6531 11.156 21.4984C11.147 21.4681 11.1381 21.4377 11.1288 21.4065C11.1107 21.3451 11.0926 21.2838 11.0745 21.2225C11.0473 21.1302 11.0201 21.0379 10.9929 20.9457C10.8653 20.5132 10.7351 20.0816 10.6024 19.6507C10.5772 19.5685 10.5772 19.5685 10.5516 19.4846C10.1957 18.3366 9.64435 17.2736 8.85938 16.3594C8.82493 16.319 8.79049 16.2785 8.755 16.2369C8.65157 16.119 8.54541 16.0045 8.4375 15.8906C8.41615 15.8678 8.39481 15.8449 8.37282 15.8213C6.64808 13.9833 4.31809 13.3709 1.97955 12.6832C1.92853 12.6681 1.87751 12.653 1.82495 12.6374C1.61406 12.5753 1.40341 12.5138 1.1903 12.4597C1.1026 12.4371 1.1026 12.4371 1.01312 12.414C0.965466 12.4026 0.91781 12.3911 0.86871 12.3794C0.715488 12.3132 0.65162 12.2332 0.5625 12.0938C0.5625 11.9473 0.5625 11.9473 0.609375 11.8125C0.752778 11.6798 0.898427 11.6315 1.08414 11.5773C1.14247 11.56 1.20079 11.5428 1.26089 11.525C1.29206 11.516 1.32323 11.507 1.35535 11.4977C1.4547 11.469 1.55391 11.4398 1.65309 11.4105C1.82985 11.3583 2.00673 11.3066 2.18366 11.255C3.0314 11.0076 3.87839 10.7597 4.71643 10.481C4.80205 10.4526 4.80205 10.4526 4.8894 10.4236C6.04522 10.0344 7.06318 9.40544 7.95905 8.57904C8.04913 8.49661 8.14108 8.41837 8.23535 8.34082C8.41645 8.18571 8.56691 8.01154 8.71875 7.82812C8.74894 7.79252 8.74894 7.79252 8.77975 7.75619C9.70218 6.66581 10.2865 5.40971 10.7 4.05129C10.7383 3.92533 10.7771 3.79951 10.8159 3.6737C10.9584 3.21056 11.0959 2.74621 11.2293 2.2804C11.2566 2.18568 11.2839 2.09096 11.3112 1.99625C11.3636 1.81473 11.4148 1.63296 11.4655 1.45098C11.4894 1.36789 11.5132 1.2848 11.5371 1.20172C11.5524 1.14524 11.5524 1.14524 11.568 1.08761C11.644 0.827721 11.7459 0.565706 12.0527 0.55957Z" fill="currentColor"/>
</g>
<defs>
<clipPath id="clip0_895_3730">
<rect width="24" height="24" fill="currentColor"/>
</clipPath>
</defs>
</svg>
